<svg width="140" height="127" xmlns="http://www.w3.org/2000/svg">

 <g>
  <title>Layer 1</title>
  <g fill="currentColor" xmlns="http://www.w3.org/2000/svg">
   <path d="m78.061,27.29685c-12.387,0 -22.462,10.077 -22.462,22.46c0,12.388 10.075,22.463 22.462,22.463c12.384,0 22.46,-10.075 22.46,-22.462c0,-12.385 -10.076,-22.46 -22.46,-22.46l0,-0.001zm-22.886,31.461a25.197,25.197 0 0 1 -0.94,-2.865l-29.116,8.224c-1.958,-4.743 -6.62,-8.08 -12.066,-8.08c-7.211,0 -13.053,5.843 -13.053,13.05c0,7.208 5.843,13.053 13.053,13.053c7.208,0 13.05,-5.845 13.05,-13.053c0,-0.707 -0.07,-1.394 -0.18,-2.07l29.252,-8.26l0,0.001z"/>
   <path d="m42.272,18.63285c0.36,-0.226 0.697,-0.473 1.019,-0.735l16.66,15.233a24.72,24.72 0 0 1 2.178,-2.092l-16.804,-15.362c2.127,-3.183 2.347,-7.445 0.198,-10.91c-2.931,-4.728 -9.138,-6.185 -13.865,-3.254c-4.73,2.93 -6.184,9.139 -3.254,13.866s9.14,6.187 13.868,3.254zm54.265,14.915l17.975,-13.362c2.721,2.696 6.86,3.72 10.675,2.268c5.196,-1.982 7.806,-7.8 5.826,-12.996c-1.982,-5.2 -7.8,-7.807 -13,-5.828c-5.194,1.98 -7.805,7.801 -5.824,12.997c0.152,0.398 0.334,0.776 0.528,1.142l-18.322,13.62a25.314,25.314 0 0 1 2.142,2.16l0,-0.001zm-26.74,69.209c-0.621,-0.337 -1.26,-0.603 -1.905,-0.83l6.306,-27.876c-0.999,-0.16 -1.98,-0.383 -2.94,-0.659l-6.301,27.857c-5.1,-0.545 -10.262,1.96 -12.862,6.745c-3.44,6.333 -1.096,14.258 5.236,17.7c6.336,3.442 14.26,1.097 17.7,-5.237c3.441,-6.333 1.1,-14.258 -5.234,-17.7zm65.981,-38.6c-4.525,-3.232 -10.816,-2.185 -14.047,2.344c-0.249,0.348 -0.464,0.706 -0.658,1.07l-20.717,-7.442a24.11,24.11 0 0 1 -1.458,2.677l21.153,7.6c-0.737,3.759 0.7,7.771 4.02,10.143c4.529,3.233 10.817,2.183 14.052,-2.343c3.235,-4.527 2.183,-10.817 -2.345,-14.049z"/>
  </g>
 </g>
</svg>