<svg xmlns="http://www.w3.org/2000/svg" class="css-1j8o68f" viewBox="0 0 350 215.678"><g xmlns="http://www.w3.org/2000/svg" fill="currentColor"><path d="M183.061 27.297c-12.387 0-22.462 10.077-22.462 22.46 0 12.388 10.075 22.463 22.462 22.463 12.384 0 22.46-10.075 22.46-22.462 0-12.385-10.076-22.46-22.46-22.46zM160.175 58.758a25.197 25.197 0 0 1-.94-2.865l-29.116 8.224c-1.958-4.743-6.62-8.08-12.066-8.08-7.211 0-13.053 5.843-13.053 13.05 0 7.208 5.843 13.053 13.053 13.053 7.208 0 13.05-5.845 13.05-13.053 0-.707-.07-1.394-.18-2.07l29.252-8.26z"/><path d="M147.272 18.633c.36-.226.697-.473 1.019-.735l16.66 15.233a24.72 24.72 0 0 1 2.178-2.092l-16.804-15.362c2.127-3.183 2.347-7.445.198-10.91-2.931-4.728-9.138-6.185-13.865-3.254-4.73 2.93-6.184 9.139-3.254 13.866s9.14 6.187 13.868 3.254zM201.537 33.548l17.975-13.362c2.721 2.696 6.86 3.72 10.675 2.268 5.196-1.982 7.806-7.8 5.826-12.996-1.982-5.2-7.8-7.807-13-5.828-5.194 1.98-7.805 7.801-5.824 12.997.152.398.334.776.528 1.142l-18.322 13.62a25.314 25.314 0 0 1 2.142 2.16zM174.797 102.757c-.621-.337-1.26-.603-1.905-.83l6.306-27.876c-.999-.16-1.98-.383-2.94-.659l-6.301 27.857c-5.1-.545-10.262 1.96-12.862 6.745-3.44 6.333-1.096 14.258 5.236 17.7 6.336 3.442 14.26 1.097 17.7-5.237 3.441-6.333 1.1-14.258-5.234-17.7zM240.778 64.157c-4.525-3.232-10.816-2.185-14.047 2.344-.249.348-.464.706-.658 1.07l-20.717-7.442a24.11 24.11 0 0 1-1.458 2.677l21.153 7.6c-.737 3.759.7 7.771 4.02 10.143 4.529 3.233 10.817 2.183 14.052-2.343 3.235-4.527 2.183-10.817-2.345-14.049z"/></g><path fill="currentColor" d="M32.227 147c7.652 0 14.078 2.158 19.281 6.473s8.203 10.023 8.998 17.124H46.55c-.49-3.245-2.111-5.968-4.866-8.172s-5.907-3.305-9.457-3.305c-5.631 0-10.008 2.02-13.13 6.06s-4.682 9.518-4.682 16.434c0 6.734 1.576 12.074 4.728 16.022s7.514 5.922 13.084 5.922c4.162 0 7.529-1.27 10.1-3.81s4.162-6.167 4.774-10.88h13.956c-.734 8.324-3.718 14.874-8.952 19.648s-11.86 7.162-19.878 7.162c-9.61 0-17.383-3.168-23.32-9.503S0 191.653 0 181.615c0-10.162 2.938-18.471 8.814-24.928S22.494 147 32.227 147zm60.323 18.363c7.59 0 13.589 2.31 17.996 6.932s6.61 10.666 6.61 18.134c0 7.529-2.25 13.573-6.748 18.133s-10.451 6.84-17.858 6.84c-7.529 0-13.497-2.31-17.904-6.932s-6.61-10.635-6.61-18.041c0-7.652 2.249-13.742 6.748-18.272s10.42-6.794 17.766-6.794zM81.073 190.43c0 4.835.98 8.569 2.938 11.201s4.805 3.948 8.539 3.948c3.856 0 6.748-1.346 8.676-4.04s2.893-6.396 2.893-11.11c0-4.896-.995-8.66-2.984-11.293s-4.882-3.948-8.677-3.948c-3.673 0-6.488 1.316-8.447 3.948s-2.938 6.397-2.938 11.294zm57.935-41.868v65.556h-13.037v-65.556h13.037zm23.689 0v65.556h-13.038v-65.556h13.038zm32.135 16.802c13.834.061 20.75 4.56 20.75 13.497v25.157c0 4.652.551 8.019 1.653 10.1h-13.221c-.49-1.469-.796-3-.918-4.59-3.857 3.917-9.182 5.875-15.976 5.875-4.958 0-8.891-1.254-11.799-3.764s-4.36-5.999-4.36-10.467c0-4.346 1.376-7.712 4.13-10.1 2.817-2.51 7.928-4.1 15.334-4.774 5.264-.55 8.6-1.24 10.008-2.066s2.112-2.096 2.112-3.81c0-2.143-.643-3.734-1.928-4.775s-3.428-1.56-6.428-1.56c-2.754 0-4.835.566-6.243 1.698s-2.234 2.953-2.479 5.463h-13.038c.306-5.203 2.449-9.15 6.427-11.844s9.304-4.04 15.976-4.04zm-10.834 35.257c0 4.04 2.663 6.06 7.988 6.06 6.978-.061 10.497-3.642 10.559-10.742v-5.05c-1.04 1.04-3.673 1.805-7.897 2.295-3.672.429-6.366 1.178-8.08 2.25s-2.57 2.8-2.57 5.187zm54.722-52.06v23.873h.184c1.407-2.142 3.412-3.856 6.013-5.142s5.586-1.928 8.952-1.928c5.816 0 10.544 2.326 14.186 6.978s5.463 10.65 5.463 17.996c0 7.406-1.806 13.435-5.417 18.087s-8.386 6.978-14.323 6.978c-7.713 0-12.885-2.448-15.517-7.345h-.184v6.06h-12.395v-65.556h13.038zm-.46 41.869c0 4.59 1.01 8.263 3.03 11.017s4.714 4.132 8.08 4.132c3.306 0 5.983-1.346 8.034-4.04s3.076-6.396 3.076-11.11c0-4.651-.995-8.355-2.984-11.109s-4.729-4.132-8.217-4.132c-3.428 0-6.121 1.408-8.08 4.224s-2.938 6.488-2.938 11.018zm56.926-41.868v10.742h-13.038v-10.742h13.038zm0 18.087v47.469h-13.038v-47.469h13.038zm37.553-1.285c6.06 0 10.451 1.53 13.175 4.59s4.086 7.928 4.086 14.6v29.564h-13.038v-26.902c0-3.917-.627-6.825-1.882-8.722s-3.412-2.847-6.473-2.847c-3.55 0-6.12 1.072-7.712 3.214s-2.388 5.662-2.388 10.559v24.698H305.47v-47.469h12.395v6.611h.275c3.244-5.264 8.11-7.896 14.599-7.896z"/></svg>